# xmcd
#
# Track frame offsets: 
#        150
#        10894
#        19222
#        30189
#        40041
#        51827
#        65988
#        74816
#        87785
#        100130
#        111401
#        120402
#        132038
#        143525
#
# Disc length: 2160 seconds
#
# Revision: 0
# Processed by: cddbd v1.5.2PL0 Copyright (c) Steve Scherf et al.
# Submitted via: ExactAudioCopy v1.0b3
#
DISCID=ba086e0e
DTITLE=Crybabies - Be All Mine
DYEAR=2013
DGENRE=Rockabilliy
TTITLE0=Be All MIne
TTITLE1=Best Damn Thing
TTITLE2=Aint Loving My Baby Tonight
TTITLE3=Silly Billy
TTITLE4=Cold Cold Heart
TTITLE5=I Wanna Be Your Boyfriend
TTITLE6=Dynamite
TTITLE7=Squeeze Box
TTITLE8=Liquor, Beer And Wine
TTITLE9=Everybody Wants A Woman
TTITLE10=Little Honda
TTITLE11=Bringing Me Down
TTITLE12=Bumble Bee
TTITLE13=Wanted Man
EXTD=
EXTT0=
EXTT1=
EXTT2=
EXTT3=
EXTT4=
EXTT5=
EXTT6=
EXTT7=
EXTT8=
EXTT9=
EXTT10=
EXTT11=
EXTT12=
EXTT13=
PLAYORDER=
